<?xml version="1.0" encoding="iso-8859-1"?>
<!-- Generator: Adobe Illustrator 19.0.0, SVG Export Plug-In . SVG Version: 6.00 Build 0)  -->
<svg version="1.1" id="Layer_1" xmlns="http://www.w3.org/2000/svg" xmlns:xlink="http://www.w3.org/1999/xlink" x="0px" y="0px"
	 viewBox="0 0 512 512" style="enable-background:new 0 0 512 512;" xml:space="preserve">
<path style="fill:#610353;" d="M511.344,274.266C511.77,268.231,512,262.143,512,256C512,114.615,397.385,0,256,0S0,114.615,0,256
	c0,117.769,79.53,216.949,187.809,246.801L511.344,274.266z"/>
<path style="fill:#410439;" d="M511.344,274.266L314.991,77.913L119.096,434.087l68.714,68.714C209.522,508.787,232.385,512,256,512
	C391.243,512,501.976,407.125,511.344,274.266z"/>
<polygon style="fill:#FFFFFF;" points="278.328,333.913 255.711,77.913 119.096,77.913 119.096,311.652 "/>
<polygon style="fill:#E8E6E6;" points="392.904,311.652 392.904,155.826 337.252,133.565 314.991,77.913 255.711,77.913 
	256.067,333.913 "/>
<polygon style="fill:#FFFFFF;" points="314.991,155.826 314.991,77.913 392.904,155.826 "/>
<rect x="119.096" y="311.652" style="fill:#970983;" width="273.809" height="122.435"/>
<g>
	<path style="fill:#FFFFFF;" d="M178.57,346.387c13.547,0,21.341,6.658,21.341,18.465c0,12.41-7.795,19.601-21.341,19.601h-9.611
		v14.909h-13.471v-52.975L178.57,346.387L178.57,346.387z M168.958,373.859h8.93c5.904,0,9.308-2.952,9.308-8.553
		c0-5.525-3.406-8.324-9.308-8.324h-8.93V373.859z"/>
	<path style="fill:#FFFFFF;" d="M232.912,384.453h-0.378h-10.217v14.909h-13.471v-52.975h23.688
		c14.001,0,22.023,6.658,22.023,18.465c0,8.097-3.406,13.925-9.611,17.028l11.125,17.481h-15.288L232.912,384.453z M232.534,373.859
		c5.827,0,9.233-2.952,9.233-8.553c0-5.525-3.406-8.324-9.233-8.324h-10.217v16.877H232.534z"/>
	<path style="fill:#FFFFFF;" d="M319.343,372.798c0,15.439-12.26,27.169-28.683,27.169c-16.347,0-28.606-11.655-28.606-27.169
		c0-15.438,12.26-26.866,28.606-26.866C307.084,345.933,319.343,357.436,319.343,372.798z M275.828,372.874
		c0,8.93,6.886,15.817,14.984,15.817c8.173,0,14.682-6.888,14.682-15.817s-6.509-15.665-14.682-15.665
		S275.828,363.943,275.828,372.874z"/>
	<path style="fill:#FFFFFF;" d="M357.417,382.182c0,11.276-7.038,17.785-18.314,17.785c-7.492,0-13.547-3.102-18.238-8.476
		l6.205-9.007c3.784,3.936,8.023,5.905,11.125,5.905c3.557,0,5.677-2.196,5.677-6.509v-24.672h-18.163v-10.898h31.71v35.871H357.417
		z"/>
</g>
<g>
</g>
<g>
</g>
<g>
</g>
<g>
</g>
<g>
</g>
<g>
</g>
<g>
</g>
<g>
</g>
<g>
</g>
<g>
</g>
<g>
</g>
<g>
</g>
<g>
</g>
<g>
</g>
<g>
</g>
</svg>
